Coordinates
version=1
nRows=14
nColumns=36
inDegrees=yes

Units are S.I. units (second, meters, Newtons, ...)
Angles are in degrees.

endheader
time	pelvis_tilt	pelvis_list	pelvis_rotation	pelvis_tx	pelvis_ty	pelvis_tz	hip_flexion_r	hip_adduction_r	hip_rotation_r	knee_angle_r	ankle_angle_r	subtalar_angle_r	hip_flexion_l	hip_adduction_l	hip_rotation_l	knee_angle_l	ankle_angle_l	subtalar_angle_l	lumbar_extension	lumbar_bending	lumbar_rotation	arm_flex_r	arm_add_r	arm_rot_r	elbow_flex_r	pro_sup_r	wrist_flex_r	wrist_dev_r	arm_flex_l	arm_add_l	arm_rot_l	elbow_flex_l	pro_sup_l	wrist_flex_l	wrist_dev_l
      1.31000000	     -0.90766999	      5.53904198	      5.49671141	     -0.57631879	      0.90787054	     -0.21634963	      4.93172502	     -4.37317382	     -2.76070779	    -61.59980476	    -12.56708563	     -9.33522086	     21.64636434	     11.04330002	      3.64430285	    -27.23008071	      2.14210304	     -0.19488372	     -5.04599764	     -5.82160690	      0.99309144	     -5.75920802	    -18.37714683	      9.53856353	     32.09114401	     86.51662706	      0.00000000	      0.00000000	     -5.00290076	    -15.62687070	     19.93876206	     17.44370179	     86.51662706	      0.00000000	      0.00000000
      1.32000000	     -0.96222321	      5.60872613	      5.08327285	     -0.56533111	      0.90942527	     -0.21655522	      7.10739086	     -4.39078362	     -2.15160999	    -63.61487624	    -12.02673073	    -10.81198877	     20.73649136	     10.87741481	      2.92535663	    -26.87313606	      2.93370199	      0.46451136	     -5.06798725	     -5.93223384	      0.80539460	     -5.65508959	    -18.30325207	      9.93472680	     31.73032905	     86.51662706	      0.00000000	      0.00000000	     -4.80194227	    -15.79641354	     19.64145690	     17.95100959	     86.51662706	      0.00000000	      0.00000000
      1.33000000	     -0.99540976	      5.60604693	      4.68950632	     -0.55442127	      0.91111118	     -0.21677528	      9.22620163	     -4.29778004	     -1.60025775	    -65.24690223	    -11.31785030	    -11.79049592	     19.76934119	     10.68315505	      2.38816043	    -26.44169340	      3.63550981	      0.97965631	     -5.11444475	     -5.94971945	      0.59560991	     -5.56659359	    -18.24756660	     10.29373591	     31.38716572	     86.51662706	      0.00000000	      0.00000000	     -4.58795676	    -15.96137088	     19.35826937	     18.47376030	     86.51662706	      0.00000000	      0.00000000
      1.34000000	     -1.01193244	      5.54007451	      4.33564249	     -0.54354323	      0.91287501	     -0.21702953	     11.26531814	     -4.10860182	     -1.11204397	    -66.49053669	    -10.49928780	    -12.24887750	     18.74542735	     10.47684470	      2.07765969	    -25.94242432	      4.25796235	      1.32645369	     -5.17938626	     -5.88412917	      0.35966027	     -5.51429265	    -18.20247419	     10.59213674	     31.06414047	     86.51662706	      0.00000000	      0.00000000	     -4.36126463	    -16.12268433	     19.09538776	     19.00855809	     86.51662706	      0.00000000	      0.00000000
      1.35000000	     -1.01777188	      5.42052638	      4.03810603	     -0.53267563	      0.91466868	     -0.21732466	     13.20827579	     -3.84487855	     -0.69636698	    -67.34964615	     -9.60314402	    -12.22712842	     17.66961519	     10.26929637	      2.01004500	    -25.38334996	      4.81337522	      1.49794704	     -5.25646245	     -5.74641136	      0.09350375	     -5.51161784	    -18.16232732	     10.81192350	     30.76173871	     86.51662706	      0.00000000	      0.00000000	     -4.12143006	    -16.28177888	     18.85606518	     19.55482428	     86.51662706	      0.00000000	      0.00000000
      1.36000000	     -1.01809645	      5.25693445	      3.80750801	     -0.52180710	      0.91647109	     -0.21767790	     15.04451648	     -3.53422067	     -0.36674010	    -67.83291161	     -8.64499468	    -11.81683811	     16.55174084	     10.06633424	      2.17195667	    -24.77469826	      5.31304241	      1.50479656	     -5.33973151	     -5.54772232	     -0.20589400	     -5.56373615	    -18.12376757	     10.94214769	     30.47764596	     86.51662706	      0.00000000	      0.00000000	     -3.86764364	    -16.44036003	     18.64095039	     20.11381681	     86.51662706	      0.00000000	      0.00000000
      1.37000000	     -1.01557653	      5.05904311	      3.64840788	     -0.51093263	      0.91826339	     -0.21811850	     16.76757434	     -3.20637206	     -0.13844295	    -67.95155597	     -7.63619348	    -11.14392904	     15.40544206	      9.86993922	      2.52459112	    -24.12895751	      5.76630030	      1.37399862	     -5.42409861	     -5.30004882	     -0.53961627	     -5.66826090	    -18.08542434	     10.97962055	     30.20647785	     86.51662706	      0.00000000	      0.00000000	     -3.59922715	    -16.60036450	     18.44851581	     20.68765891	     86.51662706	      0.00000000	      0.00000000
      1.38000000	     -1.01018026	      4.83739958	      3.56076615	     -0.50005525	      0.91999245	     -0.21865992	     18.37292852	     -2.88848220	     -0.02468570	    -67.71849309	     -6.59358523	    -10.34856381	     14.24514940	      9.67951223	      3.01144152	    -23.45987332	      6.18115594	      1.14590120	     -5.50561915	     -5.01696051	     -0.90636081	     -5.81726981	    -18.04715147	     10.92867160	     29.94015183	     86.51662706	      0.00000000	      0.00000000	     -3.31598535	    -16.76407179	     18.27551600	     21.27855588	     86.51662706	      0.00000000	      0.00000000
      1.39000000	     -1.00052302	      4.60320464	      3.54138845	     -0.48917241	      0.92159459	     -0.21929093	     19.85657074	     -2.60176728	     -0.03238723	    -67.14776368	     -5.54399361	     -9.56602001	     13.08235593	      9.49293469	      3.56795786	    -22.78056753	      6.56568633	      0.86979118	     -5.58187584	     -4.71316675	     -1.30270236	     -5.99988431	    -18.00910000	     10.80007494	     29.66884139	     86.51662706	      0.00000000	      0.00000000	     -3.01823412	    -16.93420839	     18.11744136	     21.88826882	     86.51662706	      0.00000000	      0.00000000
      1.40000000	     -0.98532330	      4.36735243	      3.58428024	     -0.47827179	      0.92303634	     -0.21999582	     21.21468115	     -2.36028457	     -0.15911391	    -66.25369048	     -4.52320882	     -8.91116030	     11.92281450	      9.30741758	      4.13129445	    -22.10140606	      6.92934674	      0.59850974	     -5.65230728	     -4.40307556	     -1.72368187	     -6.20467264	    -17.97094080	     10.60936610	     29.38230784	     86.51662706	      0.00000000	      0.00000000	     -2.70669968	    -17.11382823	     17.96895898	     22.51782620	     86.51662706	      0.00000000	      0.00000000
      1.41000000	     -0.96369702	      4.13925716	      3.68057389	     -0.46734706	      0.92430653	     -0.22076182	     22.44417499	     -2.17116973	     -0.39260418	    -65.05003274	     -3.57085510	     -8.46784672	     10.76577356	      9.12030257	      4.64838604	    -21.42845065	      7.28353345	      0.38268837	     -5.71831370	     -4.09936786	     -2.16323528	     -6.42132017	    -17.93147541	     10.37482725	     29.07132375	     86.51662706	      0.00000000	      0.00000000	     -2.38254160	    -17.30581001	     17.82434919	     23.16740361	     86.51662706	      0.00000000	      0.00000000
      1.42000000	     -0.93457485	      3.92636941	      3.81907769	     -0.45639935	      0.92538625	     -0.22156821	     23.54344336	     -2.03550270	     -0.71315640	    -63.54979316	     -2.72322545	     -8.28356359	      9.60546816	      8.92975964	      5.08108500	    -20.76311268	      7.64109271	      0.26528664	     -5.78313094	     -3.81222066	     -2.61440853	     -6.64137684	    -17.88871834	     10.11543213	     28.72889550	     86.51662706	      0.00000000	      0.00000000	     -2.04748934	    -17.51203037	     17.67795375	     23.83628839	     86.51662706	      0.00000000	      0.00000000
      1.43000000	     -0.89619457	      3.73439916	      3.98766326	     -0.44542368	      0.92624188	     -0.22238748	     24.51264359	     -1.94968545	     -1.09781476	    -61.76599255	     -2.00632742	     -8.36861799	      8.43422925	      8.73521048	      5.40801340	    -20.10316336	      8.01485686	      0.27710835	     -5.85148531	     -3.54932906	     -3.06965844	     -6.85829721	    -17.84029782	      9.84902113	     28.35106149	     86.51662706	      0.00000000	      0.00000000	     -1.70390292	    -17.73258253	     17.52464804	     24.52286250	     86.51662706	      0.00000000	      0.00000000
      1.44000000	     -0.84636273	      3.56765206	      4.17499761	     -0.43440965	      0.92684636	     -0.22320117	     25.35323967	     -1.90743820	     -1.52475028	    -59.71300647	     -1.43107998	     -8.69873229	      7.24588858	      8.53751751	      5.62375646	    -19.44483875	      8.41563075	      0.43385762	     -5.92892612	     -3.31638177	     -3.52149222	     -7.06716294	    -17.78390445	      9.59090718	     27.93716452	     86.51662706	      0.00000000	      0.00000000	     -1.35457305	    -17.96554945	     17.36033914	     25.22456222	     86.51662706	      0.00000000	      0.00000000
